<svg width="23" height="20" viewBox="0 0 23 20" fill="none" xmlns="http://www.w3.org/2000/svg">
<path d="M13.8348 0.336914C15.022 0.336914 16.0042 1.20856 16.1675 2.34246L18.2113 2.34243C20.3917 2.34243 22.1687 4.05752 22.2484 6.20308L22.2511 6.35345V15.044C22.2511 17.2089 20.5237 18.9732 18.3627 19.0523L18.2113 19.055L4.74516 19.055C2.56473 19.055 0.787754 17.3399 0.708109 15.1944L0.705322 15.044V6.35345C0.705322 4.18857 2.43274 2.42427 4.59371 2.34519L4.74516 2.34243L6.78894 2.34246C6.94631 1.25 7.86376 0.400968 8.99236 0.340376L9.12166 0.336914L13.8348 0.336914ZM13.8348 1.67392L9.12166 1.67392C8.59668 1.67392 8.16526 2.07161 8.11632 2.58011L8.1117 2.67668C8.1117 3.23048 7.66275 3.67943 7.10894 3.67943L4.74516 3.67943C3.30281 3.67943 2.12527 4.80517 2.05523 6.21999L2.05194 6.35345V15.044C2.05194 16.4761 3.18576 17.6452 4.61074 17.7147L4.74516 17.718L18.2113 17.718C19.6537 17.718 20.8312 16.5923 20.9012 15.1775L20.9045 15.044V6.35345C20.9045 4.92138 19.7707 3.75225 18.3457 3.68271L18.2113 3.67943L15.8475 3.67943C15.2937 3.67943 14.8448 3.23048 14.8448 2.67668C14.8448 2.15545 14.4442 1.7271 13.9321 1.67851L13.8348 1.67392ZM11.4782 5.01644C14.4531 5.01644 16.8647 7.41084 16.8647 10.3645C16.8647 13.3181 14.4531 15.7125 11.4782 15.7125C8.50337 15.7125 6.09178 13.3181 6.09178 10.3645C6.09178 7.41084 8.50337 5.01644 11.4782 5.01644ZM11.4782 6.35345C9.24709 6.35345 7.43839 8.14925 7.43839 10.3645C7.43839 12.5797 9.24709 14.3755 11.4782 14.3755C13.7094 14.3755 15.5181 12.5797 15.5181 10.3645C15.5181 8.14925 13.7094 6.35345 11.4782 6.35345ZM18.2113 5.68495C18.5832 5.68495 18.8846 5.98424 18.8846 6.35345C18.8846 6.72265 18.5832 7.02195 18.2113 7.02195C17.8394 7.02195 17.538 6.72265 17.538 6.35345C17.538 5.98424 17.8394 5.68495 18.2113 5.68495Z" fill="#8C939C"/>
</svg>
