<svg width="22" height="6" viewBox="0 0 22 6" fill="none" xmlns="http://www.w3.org/2000/svg">
<path fill-rule="evenodd" clip-rule="evenodd" d="M5.38645 2.67402C5.38645 4.15083 4.18066 5.34803 2.69323 5.34803C1.2058 5.34803 0 4.15083 0 2.67402C0 1.1972 1.2058 0 2.69323 0C4.18066 0 5.38645 1.1972 5.38645 2.67402ZM13.4659 2.67412C13.4659 4.15093 12.2601 5.34813 10.7727 5.34813C9.28523 5.34813 8.07944 4.15093 8.07944 2.67412C8.07944 1.1973 9.28523 9.9781e-05 10.7727 9.9781e-05C12.2601 9.9781e-05 13.4659 1.1973 13.4659 2.67412ZM19.3012 5.34807C20.7886 5.34807 21.9944 4.15088 21.9944 2.67406C21.9944 1.19724 20.7886 4.0829e-05 19.3012 4.0829e-05C17.8138 4.0829e-05 16.608 1.19724 16.608 2.67406C16.608 4.15088 17.8138 5.34807 19.3012 5.34807Z" fill="#8C939C"/>
</svg>
