<svg width="22" height="21" viewBox="0 0 22 21" fill="none" xmlns="http://www.w3.org/2000/svg">
<path d="M15.2231 0C18.9417 0 21.9562 2.99299 21.9562 6.68504V13.3701C21.9562 17.0621 18.9417 20.0551 15.2231 20.0551L7.14347 20.0551C3.4249 20.0551 0.4104 17.0621 0.4104 13.3701V6.68504C0.4104 2.99299 3.4249 0 7.14347 0L15.2231 0ZM15.2231 1.33701L7.14347 1.33701C4.16861 1.33701 1.75701 3.7314 1.75701 6.68504V13.3701C1.75701 16.3237 4.16861 18.7181 7.14347 18.7181L15.2231 18.7181C18.198 18.7181 20.6096 16.3237 20.6096 13.3701V6.68504C20.6096 3.7314 18.198 1.33701 15.2231 1.33701ZM12.5299 5.34803C12.9018 5.34803 13.2032 5.64733 13.2032 6.01654V14.0386C13.2032 14.4078 12.9018 14.7071 12.5299 14.7071C12.1581 14.7071 11.8566 14.4078 11.8566 14.0386V6.01654C11.8566 5.64733 12.1581 5.34803 12.5299 5.34803ZM18.5897 5.34803C18.9615 5.34803 19.263 5.64733 19.263 6.01654C19.263 6.38574 18.9615 6.68504 18.5897 6.68504L15.8965 6.68437V9.35906L17.9164 9.35906C18.2882 9.35906 18.5897 9.65836 18.5897 10.0276C18.5897 10.3968 18.2882 10.6961 17.9164 10.6961L15.8965 10.6961V14.0386C15.8965 14.4078 15.595 14.7071 15.2231 14.7071C14.8513 14.7071 14.5498 14.4078 14.5498 14.0386V6.01654C14.5498 5.64733 14.8513 5.34803 15.2231 5.34803H18.5897ZM7.81677 5.34803C8.66935 5.34803 9.49028 5.57372 10.2094 5.99511C10.5296 6.18277 10.636 6.59265 10.447 6.9106C10.258 7.22856 9.84518 7.33419 9.52494 7.14653C9.01178 6.84582 8.42693 6.68504 7.81677 6.68504C5.95749 6.68504 4.45024 8.18154 4.45024 10.0276C4.45024 11.8736 5.95749 13.3701 7.81677 13.3701C8.29098 13.3701 8.7499 13.273 9.17177 13.0885L9.19301 13.0786L9.19386 10.0273C9.194 9.68446 9.45404 9.40201 9.78891 9.36352L9.86744 9.35906C10.2127 9.35919 10.4972 9.61738 10.536 9.94986L10.5405 10.0278L10.5389 13.8671L10.2078 14.061C9.48904 14.4817 8.6687 14.7071 7.81677 14.7071C5.21378 14.7071 3.10363 12.612 3.10363 10.0276C3.10363 7.44313 5.21378 5.34803 7.81677 5.34803Z" fill="#8C939C"/>
</svg>
