<svg width="30" height="32" viewBox="0 0 30 32" fill="none" xmlns="http://www.w3.org/2000/svg">
<path d="M25 10.6667H21.25V8.28C21.25 4.8 18.8625 1.69334 15.6125 1.36C11.8875 0.98667 8.75 4.10667 8.75 8V10.6667H5V29.3333H25V10.6667ZM15 22.6667C13.625 22.6667 12.5 21.4667 12.5 20C12.5 18.5333 13.625 17.3333 15 17.3333C16.375 17.3333 17.5 18.5333 17.5 20C17.5 21.4667 16.375 22.6667 15 22.6667ZM11.25 10.6667V8C11.25 5.78667 12.925 4 15 4C17.075 4 18.75 5.78667 18.75 8V10.6667H11.25Z" fill="#98989E"/>
</svg>
