<svg width="45" height="44" viewBox="0 0 45 44" fill="none" xmlns="http://www.w3.org/2000/svg">
<path fill-rule="evenodd" clip-rule="evenodd" d="M10.1152 32.5204H5.86957C4.31286 32.5204 2.81991 31.9157 1.71916 30.8395C0.618399 29.7632 0 28.3035 0 26.7815V5.73889C0 4.21684 0.618399 2.75713 1.71916 1.68088C2.81991 0.604631 4.31286 0 5.86957 0H33.2609C34.8176 0 36.3105 0.604631 37.4113 1.68088C38.512 2.75713 39.1304 4.21684 39.1304 5.73889V11.4778C40.6871 11.4778 42.1801 12.0824 43.2808 13.1587C44.3816 14.2349 45 15.6946 45 17.2167V30.6074C45 32.1294 44.3816 33.5891 43.2808 34.6654C42.1801 35.7416 40.6871 36.3463 39.1304 36.3463H35.1274L28.8646 43.3458C28.6809 43.5513 28.4544 43.716 28.2003 43.8288C27.9462 43.9416 27.6704 44 27.3913 44C27.1122 44 26.8364 43.9416 26.5823 43.8288C26.3282 43.716 26.1017 43.5513 25.918 43.3458L19.6572 36.3463H15.6522C14.4379 36.3466 13.2534 35.9789 12.2618 35.2937C11.2702 34.6085 10.5202 33.6396 10.1152 32.5204ZM35.2174 11.4778V5.73889C35.2174 5.23154 35.0113 4.74497 34.6443 4.38622C34.2774 4.02747 33.7798 3.82592 33.2609 3.82592H5.86957C5.35066 3.82592 4.85301 4.02747 4.4861 4.38622C4.11918 4.74497 3.91304 5.23154 3.91304 5.73889V26.7815C3.91304 27.2888 4.11918 27.7754 4.4861 28.1341C4.85301 28.4929 5.35066 28.6944 5.86957 28.6944H9.78261V17.2167C9.78261 15.6946 10.401 14.2349 11.5018 13.1587C12.6025 12.0824 14.0955 11.4778 15.6522 11.4778H35.2174ZM32.7659 33.1727L27.3913 39.1813L22.0167 33.1746C21.8331 32.9691 21.6066 32.8044 21.3525 32.6916C21.0984 32.5787 20.8226 32.5204 20.5435 32.5204H15.6522C15.1333 32.5204 14.6356 32.3188 14.2687 31.9601C13.9018 31.6013 13.6957 31.1147 13.6957 30.6074V17.2167C13.6957 16.7093 13.9018 16.2227 14.2687 15.864C14.6356 15.5052 15.1333 15.3037 15.6522 15.3037H39.1304C39.6493 15.3037 40.147 15.5052 40.5139 15.864C40.8808 16.2227 41.087 16.7093 41.087 17.2167V30.6074C41.087 31.1147 40.8808 31.6013 40.5139 31.9601C40.147 32.3188 39.6493 32.5204 39.1304 32.5204H34.2391C33.9602 32.5201 33.6844 32.5782 33.4303 32.6907C33.1762 32.8032 32.9497 32.9675 32.7659 33.1727Z" fill="#6F6F6F"/>
</svg>
