<svg width="22" height="22" viewBox="0 0 22 22" fill="none" xmlns="http://www.w3.org/2000/svg">
<path fill-rule="evenodd" clip-rule="evenodd" d="M10.7729 0C16.7226 0 21.5458 4.78879 21.5458 10.6961C21.5458 16.6033 16.7226 21.3921 10.7729 21.3921C4.82319 21.3921 0 16.6033 0 10.6961C0 4.78879 4.82319 0 10.7729 0ZM10.7729 1.42614C5.61649 1.42614 1.43639 5.57643 1.43639 10.6961C1.43639 15.8157 5.61649 19.966 10.7729 19.966C15.9293 19.966 20.1094 15.8157 20.1094 10.6961C20.1094 5.57643 15.9293 1.42614 10.7729 1.42614ZM16.2939 11.5343C16.6408 11.7251 16.7662 12.1591 16.574 12.5036C15.4909 14.4442 13.2526 15.6876 10.7729 15.6876C8.29962 15.6876 6.06619 14.4507 4.97982 12.5179C4.78653 12.174 4.91062 11.7396 5.25699 11.5477C5.60335 11.3558 6.04083 11.479 6.23412 11.8229C7.06062 13.2933 8.80863 14.2614 10.7729 14.2614C12.7422 14.2614 14.4938 13.2884 15.3176 11.8123C15.5099 11.4679 15.947 11.3434 16.2939 11.5343ZM6.46374 7.84378C6.86039 7.84378 7.18194 8.16303 7.18194 8.55685C7.18194 8.95067 6.86039 9.26992 6.46374 9.26992C6.0671 9.26992 5.74555 8.95067 5.74555 8.55685C5.74555 8.16303 6.0671 7.84378 6.46374 7.84378ZM15.0821 7.84378C15.4787 7.84378 15.8003 8.16303 15.8003 8.55685C15.8003 8.95067 15.4787 9.26992 15.0821 9.26992C14.6854 9.26992 14.3639 8.95067 14.3639 8.55685C14.3639 8.16303 14.6854 7.84378 15.0821 7.84378Z" fill="#8C939C"/>
<path fill-rule="evenodd" clip-rule="evenodd" d="M10.7729 0C16.7226 0 21.5458 4.78879 21.5458 10.6961C21.5458 16.6033 16.7226 21.3921 10.7729 21.3921C4.82319 21.3921 0 16.6033 0 10.6961C0 4.78879 4.82319 0 10.7729 0ZM10.7729 1.42614C5.61649 1.42614 1.43639 5.57643 1.43639 10.6961C1.43639 15.8157 5.61649 19.966 10.7729 19.966C15.9293 19.966 20.1094 15.8157 20.1094 10.6961C20.1094 5.57643 15.9293 1.42614 10.7729 1.42614ZM16.2939 11.5343C16.6408 11.7251 16.7662 12.1591 16.574 12.5036C15.4909 14.4442 13.2526 15.6876 10.7729 15.6876C8.29962 15.6876 6.06619 14.4507 4.97982 12.5179C4.78653 12.174 4.91062 11.7396 5.25699 11.5477C5.60335 11.3558 6.04083 11.479 6.23412 11.8229C7.06062 13.2933 8.80863 14.2614 10.7729 14.2614C12.7422 14.2614 14.4938 13.2884 15.3176 11.8123C15.5099 11.4679 15.947 11.3434 16.2939 11.5343ZM6.46374 7.84378C6.86039 7.84378 7.18194 8.16303 7.18194 8.55685C7.18194 8.95067 6.86039 9.26992 6.46374 9.26992C6.0671 9.26992 5.74555 8.95067 5.74555 8.55685C5.74555 8.16303 6.0671 7.84378 6.46374 7.84378ZM15.0821 7.84378C15.4787 7.84378 15.8003 8.16303 15.8003 8.55685C15.8003 8.95067 15.4787 9.26992 15.0821 9.26992C14.6854 9.26992 14.3639 8.95067 14.3639 8.55685C14.3639 8.16303 14.6854 7.84378 15.0821 7.84378Z" fill="#8C939C"/>
</svg>
