<svg width="55" height="56" viewBox="0 0 55 56" fill="none" xmlns="http://www.w3.org/2000/svg">
<path d="M9.16675 46.6667H45.8334" stroke="#6F6F6F" stroke-width="2" stroke-linecap="round" stroke-linejoin="round"/>
<path d="M18.3334 46.6667V47.6667C18.6018 47.6667 18.8588 47.5588 19.0469 47.3674L18.3334 46.6667ZM9.16675 46.6667H8.16675C8.16675 47.219 8.61446 47.6667 9.16675 47.6667V46.6667ZM9.16675 37.3333L8.4533 36.6326C8.26965 36.8196 8.16675 37.0712 8.16675 37.3333H9.16675ZM35.0463 10.9833L35.7597 11.684V11.684L35.0463 10.9833ZM38.2872 10.9833L37.5737 11.684L37.5738 11.684L38.2872 10.9833ZM44.213 17.0168L44.9264 16.316V16.316L44.213 17.0168ZM44.213 20.3166L43.4995 19.6159L44.213 20.3166ZM18.3334 45.6667H9.16675V47.6667H18.3334V45.6667ZM10.1667 46.6667V37.3333H8.16675V46.6667H10.1667ZM9.8802 38.034L35.7597 11.684L34.3328 10.2825L8.4533 36.6326L9.8802 38.034ZM37.5738 11.684L43.4995 17.7175L44.9264 16.316L39.0006 10.2825L37.5738 11.684ZM43.4995 19.6159L17.62 45.966L19.0469 47.3674L44.9264 21.0173L43.4995 19.6159ZM43.4995 17.7175C44.0124 18.2397 44.0124 19.0937 43.4995 19.6159L44.9264 21.0173C46.2034 19.7171 46.2034 17.6163 44.9264 16.316L43.4995 17.7175ZM35.7597 11.684C36.2628 11.1718 37.0707 11.1718 37.5737 11.684L39.0006 10.2825C37.7138 8.97227 35.6197 8.97227 34.3328 10.2825L35.7597 11.684Z" fill="#6F6F6F"/>
<path d="M27.5 18.6667L36.6667 28" stroke="#6F6F6F" stroke-width="2" stroke-linecap="round" stroke-linejoin="round"/>
</svg>
